
        <svg xmlns="http://www.w3.org/2000/svg" xmlns:xlink="http://www.w3.org/1999/xlink" version="1.1" width="3200" 
        height="1071.4264720201795" viewBox="0 0 3200 1071.4264720201795">
			
			<g transform="scale(10) translate(10, 10)">
				<defs id="SvgjsDefs2200"></defs><g id="SvgjsG2201" featureKey="HdFLvg-0" transform="matrix(-0.7261887266834828,0,0,0.7261887266834828,100.53677365094856,-10.892830900252243)" fill="#3ba4ef"><g xmlns="http://www.w3.org/2000/svg"><path d="M83.7,71.1c0.2,0,0.3,0,0.5-0.1l1.7-1c0.5-0.3,0.6-0.9,0.4-1.4c-0.3-0.5-0.9-0.6-1.4-0.4l-1.7,1     c-0.5,0.3-0.6,0.9-0.4,1.4C83,70.9,83.3,71.1,83.7,71.1z"></path><path d="M92.4,66.1c0.2,0,0.3,0,0.5-0.1l1.7-1c0.5-0.3,0.6-0.9,0.4-1.4c-0.3-0.5-0.9-0.6-1.4-0.4l-1.7,1     c-0.5,0.3-0.6,0.9-0.4,1.4C91.7,65.9,92,66.1,92.4,66.1z"></path><path d="M66.4,69l-1.7-1c-0.5-0.3-1.1-0.1-1.4,0.4c-0.3,0.5-0.1,1.1,0.4,1.4l1.7,1c0.2,0.1,0.3,0.1,0.5,0.1     c0.3,0,0.7-0.2,0.9-0.5C67,69.9,66.8,69.3,66.4,69z"></path><path d="M57.6,64.1l-1.7-1c-0.5-0.3-1.1-0.1-1.4,0.4c-0.3,0.5-0.1,1.1,0.4,1.4l1.7,1c0.2,0.1,0.3,0.1,0.5,0.1     c0.3,0,0.7-0.2,0.9-0.5C58.3,65,58.1,64.4,57.6,64.1z"></path><path d="M75,94c-0.6,0-1,0.4-1,1v2c0,0.6,0.4,1,1,1s1-0.4,1-1v-2C76,94.4,75.6,94,75,94z"></path><path d="M75,84c-0.6,0-1,0.4-1,1v2c0,0.6,0.4,1,1,1s1-0.4,1-1v-2C76,84.4,75.6,84,75,84z"></path><path d="M75,65.9c0.6,0,1-0.4,1-1v-2c0-0.6-0.4-1-1-1s-1,0.4-1,1v2C74,65.4,74.4,65.9,75,65.9z"></path><path d="M75,55.9c0.6,0,1-0.4,1-1v-2c0-0.6-0.4-1-1-1s-1,0.4-1,1v2C74,55.4,74.4,55.9,75,55.9z"></path><path d="M94.7,84.9l-1.7-1c-0.5-0.3-1.1-0.1-1.4,0.4c-0.3,0.5-0.1,1.1,0.4,1.4l1.7,1c0.2,0.1,0.3,0.1,0.5,0.1     c0.3,0,0.7-0.2,0.9-0.5C95.3,85.8,95.2,85.2,94.7,84.9z"></path><path d="M86,80l-1.7-1c-0.5-0.3-1.1-0.1-1.4,0.4s-0.1,1.1,0.4,1.4l1.7,1c0.2,0.1,0.3,0.1,0.5,0.1c0.3,0,0.7-0.2,0.9-0.5     C86.6,80.9,86.4,80.3,86,80z"></path><path d="M56.7,84.2l-1.7,1c-0.5,0.3-0.7,0.9-0.4,1.4c0.2,0.3,0.5,0.5,0.9,0.5c0.2,0,0.3,0,0.5-0.1l1.7-1c0.5-0.3,0.7-0.9,0.4-1.4     C57.8,84.1,57.1,83.9,56.7,84.2z"></path><path d="M65.4,79.3l-1.7,1c-0.5,0.3-0.7,0.9-0.4,1.4c0.2,0.3,0.5,0.5,0.9,0.5c0.2,0,0.3,0,0.5-0.1l1.7-1c0.5-0.3,0.7-0.9,0.4-1.4     C66.5,79.2,65.9,79,65.4,79.3z"></path><path d="M121.1,75c3.9-5.2,6.7-10.4,8-15.3c1.5-5.7,1.1-10.6-1.3-14.7c-4.6-7.8-15.8-10.8-29.8-9.2C92.4,23.1,84.2,15,75,15     c-9.2,0-17.4,8.1-23,20.8c-14-1.6-25.2,1.4-29.8,9.2c-2.4,4.1-2.8,9-1.3,14.7c1.3,5,4.1,10.2,8,15.3c-3.9,5.2-6.7,10.4-8,15.3     c-1.5,5.7-1.1,10.6,1.3,14.7c3.8,6.5,12.1,9.6,22.8,9.6c2.3,0,4.6-0.2,7.1-0.4c5.6,12.7,13.8,20.8,23,20.8     c9.2,0,17.4-8.1,23-20.8c2.4,0.3,4.8,0.4,7.1,0.4c10.7,0,19-3.2,22.8-9.6c2.4-4.1,2.8-9,1.3-14.7C127.8,85.4,125.1,80.2,121.1,75     z M105.2,37.3c9.9,0,17.5,2.9,20.9,8.8c2.1,3.6,2.5,8,1.1,13.1c-1.2,4.5-3.8,9.4-7.4,14.2c-3.2-4-7.2-8-11.7-11.8     c0.4-0.8,0.7-1.7,0.7-2.6c0-3-2.5-5.5-5.5-5.5c-1.1-5.7-2.7-11-4.6-15.8C101,37.4,103.1,37.3,105.2,37.3z M106.8,90.9     c0,1.9-1.6,3.5-3.5,3.5s-3.5-1.6-3.5-3.5s1.6-3.5,3.5-3.5S106.8,89,106.8,90.9z M103,85.4c-2.9,0.2-5.2,2.6-5.2,5.5     c0,0.9,0.2,1.8,0.6,2.5c-2.9,2-6,4-9.2,5.8c-3.2,1.8-6.4,3.4-9.6,4.9c-1-1.5-2.7-2.5-4.6-2.5c-1.9,0-3.6,1-4.6,2.5     c-3.2-1.5-6.4-3.1-9.6-4.9c-3.2-1.8-6.3-3.7-9.2-5.8c0.4-0.8,0.6-1.6,0.6-2.5c0-2.9-2.3-5.3-5.2-5.5c-0.3-3.4-0.5-6.8-0.5-10.4     c0-3.5,0.2-7,0.5-10.4c2.9-0.2,5.2-2.6,5.2-5.5c0-0.9-0.2-1.8-0.6-2.5c2.9-2,6-4,9.2-5.8c3.2-1.8,6.4-3.4,9.6-4.9     c1,1.5,2.7,2.5,4.6,2.5c1.9,0,3.6-1,4.6-2.5c3.2,1.5,6.4,3.1,9.6,4.9c3.2,1.8,6.2,3.7,9.1,5.7c-0.3,0.7-0.5,1.5-0.5,2.4     c0,2.9,2.3,5.3,5.2,5.5c0.3,3.4,0.5,7,0.5,10.6C103.4,78.5,103.3,82,103,85.4z M78.5,107.1c0,1.9-1.6,3.5-3.5,3.5     s-3.5-1.6-3.5-3.5s1.6-3.5,3.5-3.5S78.5,105.2,78.5,107.1z M46.7,87.4c1.9,0,3.5,1.6,3.5,3.5s-1.6,3.5-3.5,3.5     c-1.9,0-3.5-1.6-3.5-3.5S44.7,87.4,46.7,87.4z M43.2,59.1c0-1.9,1.6-3.5,3.5-3.5c1.9,0,3.5,1.6,3.5,3.5c0,1.9-1.6,3.5-3.5,3.5     C44.7,62.6,43.2,61,43.2,59.1z M71.5,42.9c0-1.9,1.6-3.5,3.5-3.5s3.5,1.6,3.5,3.5c0,1.9-1.6,3.5-3.5,3.5S71.5,44.8,71.5,42.9z      M103.3,62.5c-1.9,0-3.5-1.6-3.5-3.5s1.6-3.5,3.5-3.5s3.5,1.6,3.5,3.5S105.3,62.5,103.3,62.5z M99.5,54.9c-2.9-2-6.1-4-9.3-5.8     c-3.3-1.9-6.5-3.5-9.8-5c0.1-0.4,0.1-0.8,0.1-1.2c0-0.3,0-0.6-0.1-1c5.7-2,11.2-3.3,16.4-4c1.9,4.7,3.5,10.1,4.6,15.9     C100.7,54,100.1,54.4,99.5,54.9z M69.6,44.1c-3.3,1.5-6.5,3.1-9.8,5c-3.3,1.9-6.4,3.8-9.4,5.9c-0.5-0.5-1.2-0.9-1.8-1.1     c1.1-5.9,2.7-11.3,4.6-16c5.1,0.7,10.7,2.1,16.4,4c-0.1,0.3-0.1,0.6-0.1,1C69.5,43.3,69.5,43.7,69.6,44.1z M43,63.2     c0.6,0.5,1.3,0.9,2.1,1.2c-0.3,3.4-0.5,7-0.5,10.6c0,3.6,0.2,7.2,0.5,10.6c-0.8,0.2-1.5,0.6-2.1,1.2C38.6,83,34.7,79,31.5,75     C34.7,71,38.6,67,43,63.2z M50.4,95c3,2.1,6.1,4,9.4,5.9c3.3,1.9,6.5,3.5,9.8,5c-0.1,0.4-0.1,0.8-0.1,1.2c0,0.3,0,0.6,0.1,1     c-5.7,2-11.2,3.3-16.4,4c-1.9-4.8-3.5-10.2-4.6-16C49.2,95.9,49.9,95.5,50.4,95z M80.4,105.9c3.3-1.5,6.5-3.1,9.8-5     c3.3-1.9,6.4-3.8,9.4-5.9c0.5,0.5,1.2,0.9,1.8,1.1c-1.1,5.9-2.7,11.3-4.6,16c-5.1-0.7-10.7-2.1-16.4-4c0.1-0.3,0.1-0.6,0.1-1     C80.5,106.7,80.5,106.3,80.4,105.9z M107,86.8c-0.6-0.5-1.3-0.9-2.1-1.2c0.3-3.4,0.5-7,0.5-10.6c0-3.7-0.2-7.3-0.5-10.8     c0.7-0.2,1.4-0.6,2-1.1c4.5,3.8,8.4,7.8,11.6,11.9C115.3,79,111.4,83,107,86.8z M75,17c8.3,0,15.8,7.4,21,19.1     c-5.1,0.7-10.6,2.1-16.3,4c-1-1.6-2.7-2.7-4.8-2.7c-2,0-3.8,1.1-4.8,2.7c-5.6-1.9-11.1-3.3-16.3-4C59.2,24.4,66.7,17,75,17z      M22.8,59.1c-1.4-5.1-1-9.5,1.1-13.1c3.5-5.9,11.1-8.8,20.9-8.8c2,0,4.2,0.1,6.4,0.4c-1.9,4.8-3.5,10.1-4.6,15.9     c-3,0-5.4,2.5-5.4,5.5c0,0.9,0.2,1.7,0.6,2.5c-4.5,3.8-8.4,7.7-11.6,11.7C26.5,68.5,24,63.7,22.8,59.1z M23.9,104     c-2.1-3.6-2.5-8-1.1-13.1c1.2-4.5,3.8-9.4,7.4-14.2c3.2,4,7.1,8,11.6,11.7c-0.4,0.8-0.6,1.6-0.6,2.5c0,3,2.4,5.5,5.4,5.5     c1.1,5.8,2.7,11.2,4.6,15.9C38.3,113.8,28.1,111.1,23.9,104z M75,133c-8.3,0-15.8-7.4-21-19.1c5.1-0.7,10.6-2.1,16.3-4     c1,1.6,2.7,2.7,4.8,2.7c2,0,3.8-1.1,4.8-2.7c5.6,1.9,11.1,3.3,16.3,4C90.8,125.6,83.3,133,75,133z M126.1,104     c-4.2,7.1-14.4,9.8-27.3,8.4c1.9-4.8,3.5-10.1,4.6-15.9c3-0.1,5.4-2.5,5.4-5.5c0-0.9-0.2-1.7-0.6-2.5c4.5-3.8,8.4-7.7,11.6-11.7     c3.6,4.8,6.2,9.7,7.4,14.2C128.6,96,128.2,100.4,126.1,104z"></path><path d="M75,69.5c-3.1,0-5.5,2.5-5.5,5.5s2.5,5.5,5.5,5.5s5.5-2.5,5.5-5.5S78.1,69.5,75,69.5z M75,78.5c-1.9,0-3.5-1.6-3.5-3.5     s1.6-3.5,3.5-3.5s3.5,1.6,3.5,3.5S76.9,78.5,75,78.5z"></path></g></g><g id="SvgjsG2202" featureKey="VomJeJ-0" transform="matrix(1.7556180057464237,0,0,1.7556180057464237,99.47331593770632,17.870785030688356)" fill="#b8d7fe"><path d="M0.3 18.82 q0.06 -0.66 0.41 -1.32 t0.83 -1.08 q2.14 1.3 4.06 1.3 q0.84 0 1.23 -0.38 t0.39 -0.94 q0 -0.94 -1.26 -1.48 l-2.36 -1 q-1.38 -0.62 -2.12 -1.49 t-0.74 -2.21 q0 -0.92 0.37 -1.68 t1.04 -1.32 t1.59 -0.87 t2.04 -0.31 q2.24 0 4.52 1.14 q-0.1 1.54 -1.08 2.4 q-2.04 -0.98 -3.6 -0.98 q-0.8 0 -1.2 0.36 t-0.4 0.82 q0 0.78 1.18 1.26 l2.4 1.02 q1.52 0.64 2.27 1.64 t0.75 2.32 q0 0.94 -0.34 1.72 t-1.01 1.35 t-1.67 0.89 t-2.34 0.32 q-2.6 0 -4.96 -1.48 z M12.280000000000001 16.62 l0 -4.1 q0 -1.3 -0.48 -2 q0.74 -0.66 1.8 -0.66 t1.44 0.48 t0.38 1.46 l0 4.24 q0 0.7 0.16 1.02 t0.84 0.32 q0.66 0 1.34 -0.68 l0 -6.68 q0.66 -0.12 1.54 -0.12 t1.58 0.12 l0 7.12 q0 1.08 0.56 1.46 q-0.1 0.4 -0.38 0.87 t-0.58 0.69 q-1.64 -0.06 -2.36 -1.4 q-1.58 1.42 -2.98 1.42 t-2.13 -0.97 t-0.73 -2.59 z M28.66 13.98 q0 -1.34 -0.9 -1.34 q-0.32 0 -0.65 0.19 t-0.67 0.49 l0 6.68 q-0.34 0.06 -0.74 0.09 t-0.82 0.03 t-0.82 -0.03 t-0.74 -0.09 l0 -9.98 l0.14 -0.14 l1.16 0 q1.28 0 1.68 1.26 q1.42 -1.3 2.76 -1.3 q1.62 0 2.34 1.38 q1.56 -1.38 2.96 -1.38 t2.09 0.87 t0.69 2.31 l0 4.48 q0 1.3 0.5 1.98 q-0.76 0.68 -1.82 0.68 q-1.04 0 -1.42 -0.48 t-0.38 -1.46 l0 -4.26 q0 -1.32 -0.94 -1.32 q-0.58 0 -1.28 0.7 l0 6.66 q-0.34 0.06 -0.74 0.09 t-0.82 0.03 t-0.83 -0.03 t-0.75 -0.09 l0 -6.02 z M44.82 13.98 q0 -1.34 -0.9 -1.34 q-0.32 0 -0.65 0.19 t-0.67 0.49 l0 6.68 q-0.34 0.06 -0.74 0.09 t-0.82 0.03 t-0.82 -0.03 t-0.74 -0.09 l0 -9.98 l0.14 -0.14 l1.16 0 q1.28 0 1.68 1.26 q1.42 -1.3 2.76 -1.3 q1.62 0 2.34 1.38 q1.56 -1.38 2.96 -1.38 t2.09 0.87 t0.69 2.31 l0 4.48 q0 1.3 0.5 1.98 q-0.76 0.68 -1.82 0.68 q-1.04 0 -1.42 -0.48 t-0.38 -1.46 l0 -4.26 q0 -1.32 -0.94 -1.32 q-0.58 0 -1.28 0.7 l0 6.66 q-0.34 0.06 -0.74 0.09 t-0.82 0.03 t-0.83 -0.03 t-0.75 -0.09 l0 -6.02 z M64.12 18.56 q-0.1 0.42 -0.38 0.9 t-0.58 0.7 q-1.4 -0.04 -2.16 -1.06 q-1.3 1.2 -2.82 1.2 q-0.78 0 -1.36 -0.25 t-0.98 -0.67 t-0.6 -0.97 t-0.2 -1.15 q0 -0.86 0.31 -1.51 t0.85 -1.08 t1.26 -0.65 t1.54 -0.22 q0.46 0 0.81 0.01 t0.61 0.03 l0 -0.38 q0 -1.26 -1.3 -1.26 q-0.84 0 -2.94 0.64 q-0.6 -0.7 -0.76 -2.18 q0.48 -0.18 1.07 -0.34 t1.21 -0.28 t1.22 -0.19 t1.08 -0.07 q0.7 0 1.35 0.2 t1.14 0.61 t0.78 1.06 t0.29 1.55 l0 4.06 q0 0.92 0.56 1.3 z M58.08 17.06 q0 0.94 1.08 0.94 q0.56 0 1.26 -0.58 l0 -1.6 q-0.4 -0.02 -0.67 -0.03 t-0.41 -0.01 q-1.26 0 -1.26 1.28 z M65.3 11.46 q0.1 -0.4 0.38 -0.89 t0.56 -0.71 q1.84 0.14 2.56 1.82 q0.76 -1.8 2.5 -1.8 q0.52 0 1.32 0.16 q0 0.62 -0.21 1.47 t-0.57 1.45 q-0.34 -0.12 -1.02 -0.2 q-1 0 -1.64 1.02 l0 6.22 q-0.66 0.12 -1.55 0.12 t-1.57 -0.12 l0 -6.46 q0 -1.5 -0.76 -2.08 z M77.84 12.32 l0 7.68 q-0.34 0.06 -0.74 0.09 t-0.82 0.03 t-0.83 -0.03 t-0.75 -0.09 l0 -6.62 q0 -1.16 -0.94 -1.16 l-0.3 0 q-0.12 -0.38 -0.12 -1.06 q0 -0.66 0.12 -1.12 q0.52 -0.04 0.96 -0.07 t0.8 -0.03 l0.44 0 q1.02 0 1.6 0.64 t0.58 1.74 z M74.34 6 q0.58 -0.32 1.5 -0.32 q0.94 0 1.46 0.32 q0.24 0.54 0.24 1.16 t-0.24 1.16 q-0.58 0.3 -1.52 0.3 t-1.44 -0.3 q-0.24 -0.54 -0.24 -1.16 t0.24 -1.16 z M80.66000000000001 20 l0 -7.8 l-1.72 0.02 q-0.12 -0.5 -0.12 -1.1 t0.12 -1.12 l1.56 0.02 q-0.1 -0.74 -0.1 -1.34 q0 -1.5 0.97 -2.49 t2.53 -0.99 t3.06 0.56 q0.02 0.52 -0.18 1.13 t-0.5 0.93 q-0.94 -0.28 -1.54 -0.28 q-1.34 0 -1.34 1.38 q0 0.58 0.08 1.12 l2.62 -0.04 q0.12 0.52 0.12 1.12 t-0.12 1.1 l-2.4 -0.04 l0 7.82 q-0.68 0.12 -1.5 0.12 t-1.54 -0.12 z M96.58000000000001 10.34 l-2.46 9.4 q-0.58 2.16 -1.54 3.32 q-1.1 1.32 -3.38 1.32 q-1.22 0 -2.42 -0.4 q-0.06 -0.54 0.12 -1.21 t0.5 -1.03 q0.9 0.3 1.8 0.3 q1.48 0 1.96 -1.62 l0.08 -0.28 q-1.74 0 -2.08 -1.26 l-2.32 -8.62 q0.92 -0.42 1.72 -0.42 t1.17 0.3 t0.55 1.04 l0.92 3.84 q0.14 0.54 0.46 2.64 q0.02 0.14 0.16 0.14 l1.74 -7.76 q0.48 -0.14 1.3 -0.14 q0.92 0 1.6 0.22 z M101.52000000000001 17.14 q-0.54 0 -0.8 -0.02 l-0.86 2.9 q-0.48 0.12 -1.34 0.12 q-0.96 0 -1.56 -0.22 l-0.1 -0.16 l4.4 -13.42 q0.78 -0.12 1.82 -0.12 q1.18 0 1.88 0.14 l4.32 13.44 q-0.7 0.38 -1.58 0.38 q-1.04 0 -1.46 -0.36 t-0.72 -1.38 l-0.38 -1.32 q-0.26 0.02 -0.78 0.02 l-2.84 0 z M101.46000000000001 14.620000000000001 l0.8 -0.02 l1.46 0 q0.1 0 0.35 0.01 t0.37 0.01 l-0.34 -1.24 q-0.48 -1.68 -1.1 -4.12 l-0.12 0 q-0.16 0.86 -0.96 3.82 z M111.00000000000001 20 l0 -13.66 q0.62 -0.12 1.6 -0.12 t1.62 0.12 l0 13.66 q-0.64 0.12 -1.62 0.12 t-1.6 -0.12 z"></path></g>
			</g>
		</svg>
	